<svg xmlns="http://www.w3.org/2000/svg" xmlns:xlink="http://www.w3.org/1999/xlink" width="500" zoomAndPan="magnify" viewBox="0 0 375 374.999991" height="500" preserveAspectRatio="xMidYMid meet" version="1.0"><defs><g/><clipPath id="df01a7c6c9"><path d="M 12.203125 84.875 L 39.1875 84.875 L 39.1875 273.460938 L 12.203125 273.460938 Z M 12.203125 84.875 " clip-rule="nonzero"/></clipPath><clipPath id="62ebdef51d"><path d="M 39.1875 254.097656 C 39.1875 264.78125 33.144531 273.445312 25.695312 273.445312 C 18.242188 273.445312 12.203125 264.78125 12.203125 254.097656 L 12.203125 104.222656 C 12.203125 93.539062 18.242188 84.875 25.695312 84.875 C 33.144531 84.875 39.1875 93.539062 39.1875 104.222656 Z M 39.1875 254.097656 " clip-rule="nonzero"/></clipPath><clipPath id="9ba419fc95"><path d="M 148.875 83.632812 L 165.375 83.632812 L 165.375 198.164062 L 148.875 198.164062 Z M 148.875 83.632812 " clip-rule="nonzero"/></clipPath><clipPath id="ea4b03db94"><path d="M 165.375 185.089844 C 165.375 192.292969 161.683594 198.128906 157.125 198.128906 C 152.570312 198.128906 148.875 192.292969 148.875 185.089844 L 148.875 96.671875 C 148.875 89.46875 152.570312 83.632812 157.125 83.632812 C 161.683594 83.632812 165.375 89.46875 165.375 96.671875 Z M 165.375 185.089844 " clip-rule="nonzero"/></clipPath><clipPath id="d820e92d15"><path d="M 126.429688 83.632812 L 142.929688 83.632812 L 142.929688 174.703125 L 126.429688 174.703125 Z M 126.429688 83.632812 " clip-rule="nonzero"/></clipPath><clipPath id="86fa1f8e06"><path d="M 142.929688 161.640625 C 142.929688 168.839844 139.238281 174.679688 134.679688 174.679688 C 130.125 174.679688 126.429688 168.839844 126.429688 161.640625 L 126.429688 96.671875 C 126.429688 89.46875 130.125 83.632812 134.679688 83.632812 C 139.238281 83.632812 142.929688 89.46875 142.929688 96.671875 Z M 142.929688 161.640625 " clip-rule="nonzero"/></clipPath><clipPath id="8932933526"><path d="M 103.929688 83.632812 L 120.429688 83.632812 L 120.429688 151.4375 L 103.929688 151.4375 Z M 103.929688 83.632812 " clip-rule="nonzero"/></clipPath><clipPath id="4aacf242e0"><path d="M 120.429688 138.359375 C 120.429688 145.5625 116.734375 151.398438 112.179688 151.398438 C 107.621094 151.398438 103.929688 145.5625 103.929688 138.359375 L 103.929688 96.671875 C 103.929688 89.472656 107.621094 83.632812 112.179688 83.632812 C 116.734375 83.632812 120.429688 89.472656 120.429688 96.671875 Z M 120.429688 138.359375 " clip-rule="nonzero"/></clipPath><clipPath id="017369dc91"><path d="M 81.394531 83.566406 L 97.933594 83.566406 L 97.933594 127.617188 L 81.394531 127.617188 Z M 81.394531 83.566406 " clip-rule="nonzero"/></clipPath><clipPath id="ab5b418e23"><path d="M 97.933594 114.535156 C 97.933594 121.738281 94.230469 127.574219 89.664062 127.574219 C 85.097656 127.574219 81.394531 121.738281 81.394531 114.535156 L 81.394531 96.667969 C 81.394531 89.46875 85.097656 83.628906 89.664062 83.628906 C 94.230469 83.628906 97.933594 89.46875 97.933594 96.667969 Z M 97.933594 114.535156 " clip-rule="nonzero"/></clipPath><clipPath id="a410809b4b"><path d="M 16 84 L 165 84 L 165 239 L 16 239 Z M 16 84 " clip-rule="nonzero"/></clipPath><clipPath id="ce086b000e"><path d="M 29.195312 77.730469 L 170.78125 226.023438 L 151.265625 244.65625 L 9.679688 96.367188 Z M 29.195312 77.730469 " clip-rule="nonzero"/></clipPath><clipPath id="d24af37965"><path d="M 157.414062 212.019531 C 164.792969 219.75 166.40625 230.1875 161.015625 235.332031 C 155.625 240.476562 145.273438 238.382812 137.894531 230.65625 L 23.039062 110.359375 C 15.660156 102.632812 14.046875 92.195312 19.4375 87.050781 C 24.828125 81.902344 35.179688 83.996094 42.558594 91.726562 Z M 157.414062 212.019531 " clip-rule="nonzero"/></clipPath><clipPath id="42ca2cf265"><path d="M 189.285156 79.234375 L 354.785156 79.234375 L 354.785156 106.21875 L 189.285156 106.21875 Z M 189.285156 79.234375 " clip-rule="nonzero"/></clipPath><clipPath id="0faf3cb274"><path d="M 335.398438 79.234375 C 346.082031 79.234375 354.746094 85.273438 354.746094 92.726562 C 354.746094 100.179688 346.082031 106.21875 335.398438 106.21875 L 208.632812 106.21875 C 197.949219 106.21875 189.285156 100.179688 189.285156 92.726562 C 189.285156 85.273438 197.949219 79.234375 208.632812 79.234375 Z M 335.398438 79.234375 " clip-rule="nonzero"/></clipPath><clipPath id="3dd88fbbc4"><path d="M 189.285156 216.039062 L 354.785156 216.039062 L 354.785156 243.023438 L 189.285156 243.023438 Z M 189.285156 216.039062 " clip-rule="nonzero"/></clipPath><clipPath id="3d5b6c87d0"><path d="M 335.398438 216.039062 C 346.082031 216.039062 354.746094 222.078125 354.746094 229.53125 C 354.746094 236.984375 346.082031 243.023438 335.398438 243.023438 L 208.632812 243.023438 C 197.949219 243.023438 189.285156 236.984375 189.285156 229.53125 C 189.285156 222.078125 197.949219 216.039062 208.632812 216.039062 Z M 335.398438 216.039062 " clip-rule="nonzero"/></clipPath><clipPath id="030a050cc7"><path d="M 210.832031 85.9375 L 344.648438 85.9375 L 344.648438 107.347656 L 210.832031 107.347656 Z M 210.832031 85.9375 " clip-rule="nonzero"/></clipPath><clipPath id="2db842756b"><path d="M 277.714844 85.9375 L 344.597656 107.347656 L 210.832031 107.347656 Z M 277.714844 85.9375 " clip-rule="nonzero"/></clipPath><clipPath id="033387a657"><path d="M 187.492188 81.304688 L 214.476562 81.304688 L 214.476562 241.109375 L 187.492188 241.109375 Z M 187.492188 81.304688 " clip-rule="nonzero"/></clipPath><clipPath id="796d91adb3"><path d="M 214.476562 221.726562 C 214.476562 232.410156 208.4375 241.074219 200.984375 241.074219 C 193.53125 241.074219 187.492188 232.410156 187.492188 221.726562 L 187.492188 100.652344 C 187.492188 89.964844 193.53125 81.304688 200.984375 81.304688 C 208.4375 81.304688 214.476562 89.964844 214.476562 100.652344 Z M 214.476562 221.726562 " clip-rule="nonzero"/></clipPath><clipPath id="5c307e5941"><path d="M 216.398438 106.222656 L 229.898438 106.222656 L 229.898438 212.164062 L 216.398438 212.164062 Z M 216.398438 106.222656 " clip-rule="nonzero"/></clipPath><clipPath id="a533a83b98"><path d="M 229.898438 199.089844 C 229.898438 206.292969 226.878906 212.132812 223.148438 212.132812 C 219.421875 212.132812 216.398438 206.292969 216.398438 199.089844 L 216.398438 119.261719 C 216.398438 112.058594 219.421875 106.222656 223.148438 106.222656 C 226.878906 106.222656 229.898438 112.058594 229.898438 119.261719 Z M 229.898438 199.089844 " clip-rule="nonzero"/></clipPath><clipPath id="8137773550"><path d="M 238.191406 101.253906 L 251.691406 101.253906 L 251.691406 212.628906 L 238.191406 212.628906 Z M 238.191406 101.253906 " clip-rule="nonzero"/></clipPath><clipPath id="180f5f099b"><path d="M 251.691406 199.546875 C 251.691406 206.746094 248.667969 212.585938 244.941406 212.585938 C 241.214844 212.585938 238.191406 206.746094 238.191406 199.546875 L 238.191406 114.292969 C 238.191406 107.089844 241.214844 101.253906 244.941406 101.253906 C 248.667969 101.253906 251.691406 107.089844 251.691406 114.292969 Z M 251.691406 199.546875 " clip-rule="nonzero"/></clipPath><clipPath id="e95de0c001"><path d="M 259.191406 93.4375 L 272.691406 93.4375 L 272.691406 212.140625 L 259.191406 212.140625 Z M 259.191406 93.4375 " clip-rule="nonzero"/></clipPath><clipPath id="3bc1827a57"><path d="M 272.691406 199.09375 C 272.691406 206.292969 269.667969 212.132812 265.941406 212.132812 C 262.210938 212.132812 259.191406 206.292969 259.191406 199.09375 L 259.191406 106.476562 C 259.191406 99.273438 262.210938 93.4375 265.941406 93.4375 C 269.667969 93.4375 272.691406 99.273438 272.691406 106.476562 Z M 272.691406 199.09375 " clip-rule="nonzero"/></clipPath><clipPath id="9a5eda5ad7"><path d="M 280.191406 93.4375 L 293.691406 93.4375 L 293.691406 212.140625 L 280.191406 212.140625 Z M 280.191406 93.4375 " clip-rule="nonzero"/></clipPath><clipPath id="c8ccc6c679"><path d="M 293.691406 199.09375 C 293.691406 206.292969 290.667969 212.132812 286.941406 212.132812 C 283.210938 212.132812 280.191406 206.292969 280.191406 199.09375 L 280.191406 106.476562 C 280.191406 99.273438 283.210938 93.4375 286.941406 93.4375 C 290.667969 93.4375 293.691406 99.273438 293.691406 106.476562 Z M 293.691406 199.09375 " clip-rule="nonzero"/></clipPath><clipPath id="31c4b70684"><path d="M 301.191406 99.742188 L 314.691406 99.742188 L 314.691406 212.171875 L 301.191406 212.171875 Z M 301.191406 99.742188 " clip-rule="nonzero"/></clipPath><clipPath id="8e7a84a5da"><path d="M 314.691406 199.09375 C 314.691406 206.292969 311.667969 212.132812 307.941406 212.132812 C 304.210938 212.132812 301.191406 206.292969 301.191406 199.09375 L 301.191406 112.78125 C 301.191406 105.578125 304.210938 99.742188 307.941406 99.742188 C 311.667969 99.742188 314.691406 105.578125 314.691406 112.78125 Z M 314.691406 199.09375 " clip-rule="nonzero"/></clipPath><clipPath id="53d9b8b677"><path d="M 322.269531 106.222656 L 335.769531 106.222656 L 335.769531 212.164062 L 322.269531 212.164062 Z M 322.269531 106.222656 " clip-rule="nonzero"/></clipPath><clipPath id="569e0a67a8"><path d="M 335.769531 199.089844 C 335.769531 206.292969 332.746094 212.132812 329.019531 212.132812 C 325.289062 212.132812 322.269531 206.292969 322.269531 199.089844 L 322.269531 119.261719 C 322.269531 112.058594 325.289062 106.222656 329.019531 106.222656 C 332.746094 106.222656 335.769531 112.058594 335.769531 119.261719 Z M 335.769531 199.089844 " clip-rule="nonzero"/></clipPath></defs><g clip-path="url(#df01a7c6c9)"><g clip-path="url(#62ebdef51d)"><path fill="#0cc0df" d="M 39.1875 84.875 L 39.1875 273.460938 L 12.203125 273.460938 L 12.203125 84.875 Z M 39.1875 84.875 " fill-opacity="1" fill-rule="nonzero"/></g></g><g clip-path="url(#9ba419fc95)"><g clip-path="url(#ea4b03db94)"><path fill="#0cc0df" d="M 165.375 83.632812 L 165.375 198.101562 L 148.875 198.101562 L 148.875 83.632812 Z M 165.375 83.632812 " fill-opacity="1" fill-rule="nonzero"/></g></g><g clip-path="url(#d820e92d15)"><g clip-path="url(#86fa1f8e06)"><path fill="#0cc0df" d="M 142.929688 83.632812 L 142.929688 174.703125 L 126.429688 174.703125 L 126.429688 83.632812 Z M 142.929688 83.632812 " fill-opacity="1" fill-rule="nonzero"/></g></g><g clip-path="url(#8932933526)"><g clip-path="url(#4aacf242e0)"><path fill="#0cc0df" d="M 120.429688 83.632812 L 120.429688 151.375 L 103.929688 151.375 L 103.929688 83.632812 Z M 120.429688 83.632812 " fill-opacity="1" fill-rule="nonzero"/></g></g><g clip-path="url(#017369dc91)"><g clip-path="url(#ab5b418e23)"><path fill="#0cc0df" d="M 97.933594 83.628906 L 97.933594 127.554688 L 81.394531 127.554688 L 81.394531 83.628906 Z M 97.933594 83.628906 " fill-opacity="1" fill-rule="nonzero"/></g></g><g clip-path="url(#a410809b4b)"><g clip-path="url(#ce086b000e)"><g clip-path="url(#d24af37965)"><path fill="#0cc0df" d="M 29.195312 77.730469 L 170.78125 226.023438 L 151.265625 244.65625 L 9.679688 96.367188 Z M 29.195312 77.730469 " fill-opacity="1" fill-rule="nonzero"/></g></g></g><g clip-path="url(#42ca2cf265)"><g clip-path="url(#0faf3cb274)"><path fill="#545454" d="M 189.285156 79.234375 L 354.785156 79.234375 L 354.785156 106.21875 L 189.285156 106.21875 Z M 189.285156 79.234375 " fill-opacity="1" fill-rule="nonzero"/></g></g><g clip-path="url(#3dd88fbbc4)"><g clip-path="url(#3d5b6c87d0)"><path fill="#545454" d="M 189.285156 216.039062 L 354.785156 216.039062 L 354.785156 243.023438 L 189.285156 243.023438 Z M 189.285156 216.039062 " fill-opacity="1" fill-rule="nonzero"/></g></g><g clip-path="url(#030a050cc7)"><g clip-path="url(#2db842756b)"><path fill="#ffffff" d="M 210.832031 85.9375 L 344.5625 85.9375 L 344.5625 107.347656 L 210.832031 107.347656 Z M 210.832031 85.9375 " fill-opacity="1" fill-rule="nonzero"/></g></g><g clip-path="url(#033387a657)"><g clip-path="url(#796d91adb3)"><path fill="#545454" d="M 214.476562 81.304688 L 214.476562 241.109375 L 187.492188 241.109375 L 187.492188 81.304688 Z M 214.476562 81.304688 " fill-opacity="1" fill-rule="nonzero"/></g></g><g clip-path="url(#5c307e5941)"><g clip-path="url(#a533a83b98)"><path fill="#ebd721" d="M 229.898438 106.222656 L 229.898438 212.113281 L 216.398438 212.113281 L 216.398438 106.222656 Z M 229.898438 106.222656 " fill-opacity="1" fill-rule="nonzero"/></g></g><g clip-path="url(#8137773550)"><g clip-path="url(#180f5f099b)"><path fill="#f7ea74" d="M 251.691406 101.253906 L 251.691406 212.574219 L 238.191406 212.574219 L 238.191406 101.253906 Z M 251.691406 101.253906 " fill-opacity="1" fill-rule="nonzero"/></g></g><g clip-path="url(#e95de0c001)"><g clip-path="url(#3bc1827a57)"><path fill="#f0e586" d="M 272.691406 93.4375 L 272.691406 212.140625 L 259.191406 212.140625 L 259.191406 93.4375 Z M 272.691406 93.4375 " fill-opacity="1" fill-rule="nonzero"/></g></g><g clip-path="url(#9a5eda5ad7)"><g clip-path="url(#c8ccc6c679)"><path fill="#f7efa6" d="M 293.691406 93.4375 L 293.691406 212.140625 L 280.191406 212.140625 L 280.191406 93.4375 Z M 293.691406 93.4375 " fill-opacity="1" fill-rule="nonzero"/></g></g><g clip-path="url(#31c4b70684)"><g clip-path="url(#8e7a84a5da)"><path fill="#f7f2c3" d="M 314.691406 99.742188 L 314.691406 212.117188 L 301.191406 212.117188 L 301.191406 99.742188 Z M 314.691406 99.742188 " fill-opacity="1" fill-rule="nonzero"/></g></g><g clip-path="url(#53d9b8b677)"><g clip-path="url(#569e0a67a8)"><path fill="#f9f4bc" d="M 335.769531 106.222656 L 335.769531 212.113281 L 322.269531 212.113281 L 322.269531 106.222656 Z M 335.769531 106.222656 " fill-opacity="1" fill-rule="nonzero"/></g></g><g fill="#000000" fill-opacity="1"><g transform="translate(52.000115, 265.998088)"><g><path d="M 3.609375 0 L 2.046875 0 L 2.046875 -13.5625 L 4.015625 -13.5625 L 10.625 -3.203125 L 10.859375 -3.234375 L 10.859375 -13.5625 L 12.40625 -13.5625 L 12.40625 0 L 10.734375 0 L 3.84375 -11.09375 L 3.609375 -11.046875 Z M 3.609375 0 "/></g></g></g><g fill="#000000" fill-opacity="1"><g transform="translate(66.460525, 265.998088)"><g><path d="M 2.546875 -12.203125 C 2.222656 -12.203125 1.957031 -12.300781 1.75 -12.5 C 1.550781 -12.707031 1.453125 -12.96875 1.453125 -13.28125 C 1.453125 -13.582031 1.550781 -13.832031 1.75 -14.03125 C 1.957031 -14.238281 2.222656 -14.34375 2.546875 -14.34375 C 2.867188 -14.34375 3.128906 -14.238281 3.328125 -14.03125 C 3.523438 -13.832031 3.625 -13.582031 3.625 -13.28125 C 3.625 -12.96875 3.523438 -12.707031 3.328125 -12.5 C 3.128906 -12.300781 2.867188 -12.203125 2.546875 -12.203125 Z M 1.78125 0 L 1.78125 -10.234375 L 3.296875 -10.234375 L 3.296875 0 Z M 1.78125 0 "/></g></g></g><g fill="#000000" fill-opacity="1"><g transform="translate(71.534194, 265.998088)"><g><path d="M 1.78125 0 L 1.78125 -14.34375 L 3.296875 -14.34375 L 3.296875 -8.78125 L 3.484375 -8.734375 C 4.210938 -9.859375 5.269531 -10.421875 6.65625 -10.421875 C 7.882812 -10.421875 8.773438 -10.109375 9.328125 -9.484375 C 9.878906 -8.859375 10.15625 -7.894531 10.15625 -6.59375 L 10.15625 0 L 8.640625 0 L 8.640625 -6.546875 C 8.640625 -7.171875 8.5625 -7.664062 8.40625 -8.03125 C 8.25 -8.40625 8.003906 -8.675781 7.671875 -8.84375 C 7.347656 -9.019531 6.914062 -9.109375 6.375 -9.109375 C 5.445312 -9.109375 4.703125 -8.804688 4.140625 -8.203125 C 3.578125 -7.609375 3.296875 -6.625 3.296875 -5.25 L 3.296875 0 Z M 1.78125 0 "/></g></g></g><g fill="#000000" fill-opacity="1"><g transform="translate(83.313997, 265.998088)"><g><path d="M 4.21875 0.1875 C 3.207031 0.1875 2.421875 -0.0703125 1.859375 -0.59375 C 1.296875 -1.113281 1.015625 -1.863281 1.015625 -2.84375 C 1.015625 -3.445312 1.140625 -3.957031 1.390625 -4.375 C 1.640625 -4.800781 2.023438 -5.144531 2.546875 -5.40625 C 3.078125 -5.664062 3.765625 -5.867188 4.609375 -6.015625 C 5.347656 -6.140625 5.910156 -6.273438 6.296875 -6.421875 C 6.691406 -6.578125 6.953125 -6.75 7.078125 -6.9375 C 7.210938 -7.132812 7.28125 -7.378906 7.28125 -7.671875 C 7.28125 -8.140625 7.117188 -8.492188 6.796875 -8.734375 C 6.484375 -8.984375 5.972656 -9.109375 5.265625 -9.109375 C 4.609375 -9.109375 4.039062 -8.976562 3.5625 -8.71875 C 3.09375 -8.46875 2.660156 -8.085938 2.265625 -7.578125 L 2.078125 -7.578125 L 1.34375 -8.625 C 1.769531 -9.175781 2.316406 -9.613281 2.984375 -9.9375 C 3.648438 -10.257812 4.410156 -10.421875 5.265625 -10.421875 C 6.472656 -10.421875 7.363281 -10.15625 7.9375 -9.625 C 8.507812 -9.101562 8.796875 -8.375 8.796875 -7.4375 L 8.796875 -2.015625 C 8.796875 -1.441406 9.035156 -1.15625 9.515625 -1.15625 C 9.679688 -1.15625 9.835938 -1.1875 9.984375 -1.25 L 10.109375 -1.203125 L 10.28125 -0.15625 C 10.175781 -0.0820312 10.03125 -0.0234375 9.84375 0.015625 C 9.664062 0.0546875 9.476562 0.078125 9.28125 0.078125 C 8.71875 0.078125 8.289062 -0.046875 8 -0.296875 C 7.71875 -0.546875 7.535156 -0.910156 7.453125 -1.390625 L 7.265625 -1.40625 C 6.972656 -0.875 6.578125 -0.472656 6.078125 -0.203125 C 5.585938 0.0546875 4.96875 0.1875 4.21875 0.1875 Z M 4.5625 -1.015625 C 5.125 -1.015625 5.613281 -1.144531 6.03125 -1.40625 C 6.445312 -1.664062 6.765625 -2.035156 6.984375 -2.515625 C 7.210938 -2.992188 7.328125 -3.546875 7.328125 -4.171875 L 7.328125 -5.46875 L 7.15625 -5.5 C 6.925781 -5.34375 6.644531 -5.207031 6.3125 -5.09375 C 5.988281 -4.988281 5.53125 -4.894531 4.9375 -4.8125 C 4.34375 -4.726562 3.867188 -4.601562 3.515625 -4.4375 C 3.171875 -4.269531 2.925781 -4.054688 2.78125 -3.796875 C 2.632812 -3.546875 2.5625 -3.226562 2.5625 -2.84375 C 2.5625 -2.25 2.738281 -1.796875 3.09375 -1.484375 C 3.445312 -1.171875 3.9375 -1.015625 4.5625 -1.015625 Z M 4.5625 -1.015625 "/></g></g></g><g fill="#000000" fill-opacity="1"><g transform="translate(93.897275, 265.998088)"><g><path d="M 4.078125 0.1875 C 3.347656 0.1875 2.773438 -0.015625 2.359375 -0.421875 C 1.953125 -0.835938 1.75 -1.453125 1.75 -2.265625 L 1.75 -14.34375 L 3.25 -14.34375 L 3.25 -2.359375 C 3.25 -1.929688 3.332031 -1.625 3.5 -1.4375 C 3.664062 -1.25 3.921875 -1.15625 4.265625 -1.15625 C 4.472656 -1.15625 4.6875 -1.191406 4.90625 -1.265625 L 5.03125 -1.21875 L 5.21875 -0.03125 C 5.101562 0.0390625 4.941406 0.09375 4.734375 0.125 C 4.523438 0.164062 4.304688 0.1875 4.078125 0.1875 Z M 4.078125 0.1875 "/></g></g></g><g fill="#000000" fill-opacity="1"><g transform="translate(104.118805, 265.998088)"><g><path d="M 7.5 0.1875 C 6.3125 0.1875 5.253906 -0.0820312 4.328125 -0.625 C 3.398438 -1.164062 2.671875 -1.957031 2.140625 -3 C 1.617188 -4.050781 1.359375 -5.3125 1.359375 -6.78125 C 1.359375 -8.25 1.617188 -9.503906 2.140625 -10.546875 C 2.671875 -11.597656 3.398438 -12.394531 4.328125 -12.9375 C 5.253906 -13.488281 6.3125 -13.765625 7.5 -13.765625 C 8.757812 -13.765625 9.8125 -13.523438 10.65625 -13.046875 C 11.5 -12.566406 12.109375 -11.84375 12.484375 -10.875 L 11.453125 -10.203125 L 11.21875 -10.203125 C 10.851562 -10.972656 10.375 -11.519531 9.78125 -11.84375 C 9.1875 -12.164062 8.425781 -12.328125 7.5 -12.328125 C 6.644531 -12.328125 5.882812 -12.132812 5.21875 -11.75 C 4.5625 -11.375 4.035156 -10.773438 3.640625 -9.953125 C 3.253906 -9.128906 3.0625 -8.070312 3.0625 -6.78125 C 3.0625 -5.5 3.253906 -4.445312 3.640625 -3.625 C 4.035156 -2.800781 4.5625 -2.195312 5.21875 -1.8125 C 5.882812 -1.4375 6.644531 -1.25 7.5 -1.25 C 8.476562 -1.25 9.28125 -1.46875 9.90625 -1.90625 C 10.53125 -2.34375 10.992188 -3.054688 11.296875 -4.046875 L 11.53125 -4.046875 L 12.59375 -3.53125 C 12.269531 -2.320312 11.675781 -1.398438 10.8125 -0.765625 C 9.945312 -0.128906 8.84375 0.1875 7.5 0.1875 Z M 7.5 0.1875 "/></g></g></g><g fill="#000000" fill-opacity="1"><g transform="translate(117.41978, 265.998088)"><g><path d="M 5.875 0.1875 C 4.90625 0.1875 4.0625 -0.015625 3.34375 -0.421875 C 2.632812 -0.828125 2.085938 -1.425781 1.703125 -2.21875 C 1.316406 -3.019531 1.125 -3.984375 1.125 -5.109375 C 1.125 -6.242188 1.316406 -7.207031 1.703125 -8 C 2.085938 -8.800781 2.632812 -9.40625 3.34375 -9.8125 C 4.0625 -10.21875 4.90625 -10.421875 5.875 -10.421875 C 6.832031 -10.421875 7.671875 -10.21875 8.390625 -9.8125 C 9.109375 -9.40625 9.660156 -8.800781 10.046875 -8 C 10.429688 -7.207031 10.625 -6.242188 10.625 -5.109375 C 10.625 -3.984375 10.429688 -3.019531 10.046875 -2.21875 C 9.660156 -1.425781 9.109375 -0.828125 8.390625 -0.421875 C 7.671875 -0.015625 6.832031 0.1875 5.875 0.1875 Z M 5.875 -1.15625 C 6.894531 -1.15625 7.675781 -1.476562 8.21875 -2.125 C 8.757812 -2.769531 9.03125 -3.765625 9.03125 -5.109375 C 9.03125 -6.460938 8.757812 -7.460938 8.21875 -8.109375 C 7.675781 -8.753906 6.894531 -9.078125 5.875 -9.078125 C 4.851562 -9.078125 4.066406 -8.753906 3.515625 -8.109375 C 2.972656 -7.460938 2.703125 -6.460938 2.703125 -5.109375 C 2.703125 -3.765625 2.972656 -2.769531 3.515625 -2.125 C 4.066406 -1.476562 4.851562 -1.15625 5.875 -1.15625 Z M 5.875 -1.15625 "/></g></g></g><g fill="#000000" fill-opacity="1"><g transform="translate(129.162482, 265.998088)"><g><path d="M 1.78125 0 L 1.78125 -10.234375 L 3.21875 -10.234375 L 3.21875 -8.625 L 3.421875 -8.578125 C 3.753906 -9.179688 4.1875 -9.640625 4.71875 -9.953125 C 5.25 -10.265625 5.894531 -10.421875 6.65625 -10.421875 C 7.882812 -10.421875 8.773438 -10.109375 9.328125 -9.484375 C 9.878906 -8.859375 10.15625 -7.894531 10.15625 -6.59375 L 10.15625 0 L 8.640625 0 L 8.640625 -6.546875 C 8.640625 -7.171875 8.5625 -7.664062 8.40625 -8.03125 C 8.25 -8.40625 8.003906 -8.675781 7.671875 -8.84375 C 7.347656 -9.019531 6.914062 -9.109375 6.375 -9.109375 C 5.445312 -9.109375 4.703125 -8.800781 4.140625 -8.1875 C 3.578125 -7.582031 3.296875 -6.601562 3.296875 -5.25 L 3.296875 0 Z M 1.78125 0 "/></g></g></g><g fill="#000000" fill-opacity="1"><g transform="translate(140.942285, 265.998088)"><g><path d="M 4.671875 0.1875 C 4.023438 0.1875 3.425781 0.101562 2.875 -0.0625 C 2.332031 -0.226562 1.867188 -0.457031 1.484375 -0.75 C 1.109375 -1.050781 0.847656 -1.390625 0.703125 -1.765625 L 1.59375 -2.6875 L 1.78125 -2.6875 C 2.113281 -2.1875 2.515625 -1.804688 2.984375 -1.546875 C 3.453125 -1.285156 4.015625 -1.15625 4.671875 -1.15625 C 5.421875 -1.15625 5.992188 -1.300781 6.390625 -1.59375 C 6.785156 -1.894531 6.984375 -2.304688 6.984375 -2.828125 C 6.984375 -3.234375 6.863281 -3.566406 6.625 -3.828125 C 6.382812 -4.085938 6 -4.285156 5.46875 -4.421875 L 3.734375 -4.84375 C 2.816406 -5.0625 2.144531 -5.410156 1.71875 -5.890625 C 1.289062 -6.378906 1.078125 -6.976562 1.078125 -7.6875 C 1.078125 -8.25 1.21875 -8.734375 1.5 -9.140625 C 1.789062 -9.554688 2.203125 -9.875 2.734375 -10.09375 C 3.273438 -10.3125 3.910156 -10.421875 4.640625 -10.421875 C 5.585938 -10.421875 6.332031 -10.289062 6.875 -10.03125 C 7.414062 -9.769531 7.835938 -9.40625 8.140625 -8.9375 L 7.28125 -8.09375 L 7.09375 -8.09375 C 6.769531 -8.476562 6.414062 -8.753906 6.03125 -8.921875 C 5.644531 -9.085938 5.179688 -9.171875 4.640625 -9.171875 C 3.972656 -9.171875 3.457031 -9.046875 3.09375 -8.796875 C 2.738281 -8.554688 2.5625 -8.207031 2.5625 -7.75 C 2.5625 -7.34375 2.6875 -7.007812 2.9375 -6.75 C 3.195312 -6.5 3.640625 -6.296875 4.265625 -6.140625 L 5.96875 -5.734375 C 6.851562 -5.523438 7.492188 -5.175781 7.890625 -4.6875 C 8.285156 -4.195312 8.484375 -3.582031 8.484375 -2.84375 C 8.484375 -2.25 8.34375 -1.722656 8.0625 -1.265625 C 7.78125 -0.804688 7.347656 -0.445312 6.765625 -0.1875 C 6.191406 0.0625 5.492188 0.1875 4.671875 0.1875 Z M 4.671875 0.1875 "/></g></g></g><g fill="#000000" fill-opacity="1"><g transform="translate(150.40323, 265.998088)"><g><path d="M 6.921875 -1.625 L 7.40625 -0.53125 C 7.164062 -0.289062 6.847656 -0.113281 6.453125 0 C 6.054688 0.125 5.628906 0.1875 5.171875 0.1875 C 3.222656 0.1875 2.25 -0.800781 2.25 -2.78125 L 2.25 -9 L 0.46875 -9 L 0.46875 -10.25 L 2.25 -10.25 L 2.25 -12.40625 L 3.75 -12.65625 L 3.75 -10.25 L 7.046875 -10.25 L 7.046875 -9 L 3.75 -9 L 3.75 -2.921875 C 3.75 -1.742188 4.257812 -1.15625 5.28125 -1.15625 C 5.84375 -1.15625 6.320312 -1.3125 6.71875 -1.625 Z M 6.921875 -1.625 "/></g></g></g><g fill="#000000" fill-opacity="1"><g transform="translate(158.194596, 265.998088)"><g><path d="M 1.78125 0 L 1.78125 -10.234375 L 3.21875 -10.234375 L 3.21875 -8.625 L 3.421875 -8.578125 C 3.890625 -9.742188 4.785156 -10.328125 6.109375 -10.328125 C 6.804688 -10.328125 7.328125 -10.203125 7.671875 -9.953125 L 7.28125 -8.671875 L 7.09375 -8.625 C 6.707031 -8.820312 6.285156 -8.921875 5.828125 -8.921875 C 5.015625 -8.921875 4.390625 -8.613281 3.953125 -8 C 3.515625 -7.382812 3.296875 -6.390625 3.296875 -5.015625 L 3.296875 0 Z M 1.78125 0 "/></g></g></g><g fill="#000000" fill-opacity="1"><g transform="translate(166.097267, 265.998088)"><g><path d="M 5.0625 0.1875 C 3.90625 0.1875 3.039062 -0.113281 2.46875 -0.71875 C 1.90625 -1.332031 1.625 -2.234375 1.625 -3.421875 L 1.625 -10.234375 L 3.140625 -10.234375 L 3.140625 -3.453125 C 3.140625 -1.898438 3.867188 -1.125 5.328125 -1.125 C 6.253906 -1.125 6.984375 -1.425781 7.515625 -2.03125 C 8.054688 -2.632812 8.328125 -3.617188 8.328125 -4.984375 L 8.328125 -10.234375 L 9.84375 -10.234375 L 9.84375 0 L 8.421875 0 L 8.421875 -1.609375 L 8.21875 -1.65625 C 7.863281 -1.03125 7.441406 -0.566406 6.953125 -0.265625 C 6.460938 0.0351562 5.832031 0.1875 5.0625 0.1875 Z M 5.0625 0.1875 "/></g></g></g><g fill="#000000" fill-opacity="1"><g transform="translate(177.719394, 265.998088)"><g><path d="M 5.875 0.1875 C 4.96875 0.1875 4.15625 -0.015625 3.4375 -0.421875 C 2.71875 -0.835938 2.148438 -1.441406 1.734375 -2.234375 C 1.328125 -3.035156 1.125 -3.992188 1.125 -5.109375 C 1.125 -6.234375 1.328125 -7.191406 1.734375 -7.984375 C 2.148438 -8.785156 2.71875 -9.390625 3.4375 -9.796875 C 4.15625 -10.210938 4.96875 -10.421875 5.875 -10.421875 C 6.957031 -10.421875 7.816406 -10.21875 8.453125 -9.8125 C 9.097656 -9.40625 9.5625 -8.863281 9.84375 -8.1875 L 8.8125 -7.4375 L 8.625 -7.4375 C 8.34375 -8 7.984375 -8.410156 7.546875 -8.671875 C 7.117188 -8.941406 6.5625 -9.078125 5.875 -9.078125 C 5.238281 -9.078125 4.679688 -8.925781 4.203125 -8.625 C 3.734375 -8.332031 3.363281 -7.890625 3.09375 -7.296875 C 2.832031 -6.703125 2.703125 -5.972656 2.703125 -5.109375 C 2.703125 -4.253906 2.832031 -3.53125 3.09375 -2.9375 C 3.363281 -2.351562 3.734375 -1.910156 4.203125 -1.609375 C 4.679688 -1.304688 5.238281 -1.15625 5.875 -1.15625 C 6.582031 -1.15625 7.171875 -1.316406 7.640625 -1.640625 C 8.109375 -1.960938 8.472656 -2.46875 8.734375 -3.15625 L 8.9375 -3.15625 L 9.921875 -2.578125 C 9.660156 -1.722656 9.1875 -1.046875 8.5 -0.546875 C 7.820312 -0.0546875 6.945312 0.1875 5.875 0.1875 Z M 5.875 0.1875 "/></g></g></g><g fill="#000000" fill-opacity="1"><g transform="translate(188.26557, 265.998088)"><g><path d="M 6.921875 -1.625 L 7.40625 -0.53125 C 7.164062 -0.289062 6.847656 -0.113281 6.453125 0 C 6.054688 0.125 5.628906 0.1875 5.171875 0.1875 C 3.222656 0.1875 2.25 -0.800781 2.25 -2.78125 L 2.25 -9 L 0.46875 -9 L 0.46875 -10.25 L 2.25 -10.25 L 2.25 -12.40625 L 3.75 -12.65625 L 3.75 -10.25 L 7.046875 -10.25 L 7.046875 -9 L 3.75 -9 L 3.75 -2.921875 C 3.75 -1.742188 4.257812 -1.15625 5.28125 -1.15625 C 5.84375 -1.15625 6.320312 -1.3125 6.71875 -1.625 Z M 6.921875 -1.625 "/></g></g></g><g fill="#000000" fill-opacity="1"><g transform="translate(196.056936, 265.998088)"><g><path d="M 2.546875 -12.203125 C 2.222656 -12.203125 1.957031 -12.300781 1.75 -12.5 C 1.550781 -12.707031 1.453125 -12.96875 1.453125 -13.28125 C 1.453125 -13.582031 1.550781 -13.832031 1.75 -14.03125 C 1.957031 -14.238281 2.222656 -14.34375 2.546875 -14.34375 C 2.867188 -14.34375 3.128906 -14.238281 3.328125 -14.03125 C 3.523438 -13.832031 3.625 -13.582031 3.625 -13.28125 C 3.625 -12.96875 3.523438 -12.707031 3.328125 -12.5 C 3.128906 -12.300781 2.867188 -12.203125 2.546875 -12.203125 Z M 1.78125 0 L 1.78125 -10.234375 L 3.296875 -10.234375 L 3.296875 0 Z M 1.78125 0 "/></g></g></g><g fill="#000000" fill-opacity="1"><g transform="translate(201.130605, 265.998088)"><g><path d="M 5.875 0.1875 C 4.90625 0.1875 4.0625 -0.015625 3.34375 -0.421875 C 2.632812 -0.828125 2.085938 -1.425781 1.703125 -2.21875 C 1.316406 -3.019531 1.125 -3.984375 1.125 -5.109375 C 1.125 -6.242188 1.316406 -7.207031 1.703125 -8 C 2.085938 -8.800781 2.632812 -9.40625 3.34375 -9.8125 C 4.0625 -10.21875 4.90625 -10.421875 5.875 -10.421875 C 6.832031 -10.421875 7.671875 -10.21875 8.390625 -9.8125 C 9.109375 -9.40625 9.660156 -8.800781 10.046875 -8 C 10.429688 -7.207031 10.625 -6.242188 10.625 -5.109375 C 10.625 -3.984375 10.429688 -3.019531 10.046875 -2.21875 C 9.660156 -1.425781 9.109375 -0.828125 8.390625 -0.421875 C 7.671875 -0.015625 6.832031 0.1875 5.875 0.1875 Z M 5.875 -1.15625 C 6.894531 -1.15625 7.675781 -1.476562 8.21875 -2.125 C 8.757812 -2.769531 9.03125 -3.765625 9.03125 -5.109375 C 9.03125 -6.460938 8.757812 -7.460938 8.21875 -8.109375 C 7.675781 -8.753906 6.894531 -9.078125 5.875 -9.078125 C 4.851562 -9.078125 4.066406 -8.753906 3.515625 -8.109375 C 2.972656 -7.460938 2.703125 -6.460938 2.703125 -5.109375 C 2.703125 -3.765625 2.972656 -2.769531 3.515625 -2.125 C 4.066406 -1.476562 4.851562 -1.15625 5.875 -1.15625 Z M 5.875 -1.15625 "/></g></g></g><g fill="#000000" fill-opacity="1"><g transform="translate(212.873307, 265.998088)"><g><path d="M 1.78125 0 L 1.78125 -10.234375 L 3.21875 -10.234375 L 3.21875 -8.625 L 3.421875 -8.578125 C 3.753906 -9.179688 4.1875 -9.640625 4.71875 -9.953125 C 5.25 -10.265625 5.894531 -10.421875 6.65625 -10.421875 C 7.882812 -10.421875 8.773438 -10.109375 9.328125 -9.484375 C 9.878906 -8.859375 10.15625 -7.894531 10.15625 -6.59375 L 10.15625 0 L 8.640625 0 L 8.640625 -6.546875 C 8.640625 -7.171875 8.5625 -7.664062 8.40625 -8.03125 C 8.25 -8.40625 8.003906 -8.675781 7.671875 -8.84375 C 7.347656 -9.019531 6.914062 -9.109375 6.375 -9.109375 C 5.445312 -9.109375 4.703125 -8.800781 4.140625 -8.1875 C 3.578125 -7.582031 3.296875 -6.601562 3.296875 -5.25 L 3.296875 0 Z M 1.78125 0 "/></g></g></g><g fill="#000000" fill-opacity="1"><g transform="translate(229.309379, 265.998088)"><g><path d="M 4.34375 1.9375 C 3.53125 0.914062 2.875 -0.234375 2.375 -1.515625 C 1.875 -2.804688 1.625 -4.367188 1.625 -6.203125 C 1.625 -8.035156 1.875 -9.59375 2.375 -10.875 C 2.875 -12.15625 3.53125 -13.3125 4.34375 -14.34375 L 5.375 -14.34375 L 5.40625 -14.140625 C 4.945312 -13.398438 4.554688 -12.65625 4.234375 -11.90625 C 3.921875 -11.164062 3.664062 -10.316406 3.46875 -9.359375 C 3.28125 -8.410156 3.1875 -7.359375 3.1875 -6.203125 C 3.1875 -5.035156 3.28125 -3.976562 3.46875 -3.03125 C 3.664062 -2.082031 3.921875 -1.234375 4.234375 -0.484375 C 4.554688 0.253906 4.945312 1 5.40625 1.75 L 5.375 1.9375 Z M 4.34375 1.9375 "/></g></g></g><g fill="#000000" fill-opacity="1"><g transform="translate(235.486819, 265.998088)"><g><path d="M 6.90625 -13.5625 C 7.832031 -13.5625 8.628906 -13.394531 9.296875 -13.0625 C 9.972656 -12.726562 10.484375 -12.25 10.828125 -11.625 C 11.179688 -11.007812 11.359375 -10.28125 11.359375 -9.4375 C 11.359375 -8.59375 11.179688 -7.859375 10.828125 -7.234375 C 10.484375 -6.617188 9.972656 -6.144531 9.296875 -5.8125 C 8.628906 -5.476562 7.832031 -5.3125 6.90625 -5.3125 L 3.640625 -5.3125 L 3.640625 0 L 2.046875 0 L 2.046875 -13.5625 Z M 6.859375 -6.671875 C 8.742188 -6.671875 9.6875 -7.59375 9.6875 -9.4375 C 9.6875 -11.28125 8.742188 -12.203125 6.859375 -12.203125 L 3.640625 -12.203125 L 3.640625 -6.671875 Z M 6.859375 -6.671875 "/></g></g></g><g fill="#000000" fill-opacity="1"><g transform="translate(247.850992, 265.998088)"><g><path d="M 6.46875 0 L 4.390625 0 L 0.5 -10.234375 L 2.140625 -10.234375 L 5.359375 -1.71875 L 5.5625 -1.71875 L 8.765625 -10.234375 L 10.359375 -10.234375 Z M 6.46875 0 "/></g></g></g><g fill="#000000" fill-opacity="1"><g transform="translate(258.693994, 265.998088)"><g><path d="M 6.921875 -1.625 L 7.40625 -0.53125 C 7.164062 -0.289062 6.847656 -0.113281 6.453125 0 C 6.054688 0.125 5.628906 0.1875 5.171875 0.1875 C 3.222656 0.1875 2.25 -0.800781 2.25 -2.78125 L 2.25 -9 L 0.46875 -9 L 0.46875 -10.25 L 2.25 -10.25 L 2.25 -12.40625 L 3.75 -12.65625 L 3.75 -10.25 L 7.046875 -10.25 L 7.046875 -9 L 3.75 -9 L 3.75 -2.921875 C 3.75 -1.742188 4.257812 -1.15625 5.28125 -1.15625 C 5.84375 -1.15625 6.320312 -1.3125 6.71875 -1.625 Z M 6.921875 -1.625 "/></g></g></g><g fill="#000000" fill-opacity="1"><g transform="translate(266.48536, 265.998088)"><g><path d="M 0.765625 1.75 C 1.222656 1 1.609375 0.253906 1.921875 -0.484375 C 2.242188 -1.234375 2.503906 -2.082031 2.703125 -3.03125 C 2.898438 -3.988281 3 -5.046875 3 -6.203125 C 3 -7.359375 2.898438 -8.410156 2.703125 -9.359375 C 2.503906 -10.304688 2.242188 -11.15625 1.921875 -11.90625 C 1.609375 -12.65625 1.222656 -13.398438 0.765625 -14.140625 L 0.8125 -14.34375 L 1.828125 -14.34375 C 2.640625 -13.3125 3.296875 -12.15625 3.796875 -10.875 C 4.296875 -9.59375 4.546875 -8.035156 4.546875 -6.203125 C 4.546875 -4.367188 4.296875 -2.804688 3.796875 -1.515625 C 3.296875 -0.234375 2.640625 0.914062 1.828125 1.9375 L 0.8125 1.9375 Z M 0.765625 1.75 "/></g></g></g><g fill="#000000" fill-opacity="1"><g transform="translate(277.309822, 265.998088)"><g><path d="M 3.640625 -13.5625 L 3.640625 -1.3125 L 10.171875 -1.3125 L 10.171875 0 L 2.046875 0 L 2.046875 -13.5625 Z M 3.640625 -13.5625 "/></g></g></g><g fill="#000000" fill-opacity="1"><g transform="translate(288.060058, 265.998088)"><g><path d="M 6.921875 -1.625 L 7.40625 -0.53125 C 7.164062 -0.289062 6.847656 -0.113281 6.453125 0 C 6.054688 0.125 5.628906 0.1875 5.171875 0.1875 C 3.222656 0.1875 2.25 -0.800781 2.25 -2.78125 L 2.25 -9 L 0.46875 -9 L 0.46875 -10.25 L 2.25 -10.25 L 2.25 -12.40625 L 3.75 -12.65625 L 3.75 -10.25 L 7.046875 -10.25 L 7.046875 -9 L 3.75 -9 L 3.75 -2.921875 C 3.75 -1.742188 4.257812 -1.15625 5.28125 -1.15625 C 5.84375 -1.15625 6.320312 -1.3125 6.71875 -1.625 Z M 6.921875 -1.625 "/></g></g></g><g fill="#000000" fill-opacity="1"><g transform="translate(295.851424, 265.998088)"><g><path d="M 5.3125 0.1875 C 4.488281 0.1875 3.757812 -0.00390625 3.125 -0.390625 C 2.5 -0.785156 2.007812 -1.378906 1.65625 -2.171875 C 1.300781 -2.960938 1.125 -3.941406 1.125 -5.109375 C 1.125 -6.273438 1.304688 -7.253906 1.671875 -8.046875 C 2.046875 -8.847656 2.554688 -9.441406 3.203125 -9.828125 C 3.859375 -10.222656 4.617188 -10.421875 5.484375 -10.421875 C 6.160156 -10.421875 6.769531 -10.289062 7.3125 -10.03125 C 7.863281 -9.78125 8.332031 -9.363281 8.71875 -8.78125 L 8.921875 -8.8125 L 8.921875 -14.34375 L 10.421875 -14.34375 L 10.421875 0 L 8.921875 0 L 8.921875 -1.5 L 8.71875 -1.53125 C 8.382812 -1.019531 7.929688 -0.601562 7.359375 -0.28125 C 6.785156 0.03125 6.101562 0.1875 5.3125 0.1875 Z M 5.78125 -1.15625 C 6.726562 -1.15625 7.488281 -1.484375 8.0625 -2.140625 C 8.632812 -2.796875 8.921875 -3.785156 8.921875 -5.109375 C 8.921875 -6.441406 8.632812 -7.4375 8.0625 -8.09375 C 7.488281 -8.75 6.726562 -9.078125 5.78125 -9.078125 C 4.800781 -9.078125 4.039062 -8.753906 3.5 -8.109375 C 2.96875 -7.472656 2.703125 -6.472656 2.703125 -5.109375 C 2.703125 -2.472656 3.726562 -1.15625 5.78125 -1.15625 Z M 5.78125 -1.15625 "/></g></g></g></svg>